<?xml version="1.0" encoding="utf-8"?>
<!-- Generator: Adobe Illustrator 25.2.1, SVG Export Plug-In . SVG Version: 6.00 Build 0)  -->
<svg version="1.1" id="图层_1" xmlns="http://www.w3.org/2000/svg" xmlns:xlink="http://www.w3.org/1999/xlink" x="0px" y="0px"
	 viewBox="0 0 800 800" style="enable-background:new 0 0 800 800;" xml:space="preserve">
<style type="text/css">
	.st0{clip-path:url(#SVGID_2_);fill:#007AFF;}
	.st1{clip-path:url(#SVGID_2_);fill:#FFFFFF;}
	.st2{clip-path:url(#SVGID_2_);fill:none;}
</style>
<g>
	<defs>
		<path id="SVGID_1_" d="M700,800H100C44.8,800,0,755.2,0,700V100C0,44.8,44.8,0,100,0h600c55.2,0,100,44.8,100,100v600
			C800,755.2,755.2,800,700,800z"/>
	</defs>
	<clipPath id="SVGID_2_">
		<use xlink:href="#SVGID_1_"  style="overflow:visible;"/>
	</clipPath>
	<path class="st0" d="M700,800H100C44.8,800,0,755.2,0,700V100C0,44.8,44.8,0,100,0h600c55.2,0,100,44.8,100,100v600
		C800,755.2,755.2,800,700,800z"/>
	<path class="st1" d="M107.9,801.4c109-142.2,155.4-280.2,137.9-410.3C234,303.8,195.1,235,158.7,187.7
		C186.4,480.1,54.4,706.5-40.9,828.9c9.5-3.4,19-6.5,28.6-9.2C27.8,808,67.9,801.9,107.9,801.4z"/>
	<path class="st1" d="M190.4,144c43.3,52.9,92.4,134,106.7,240.3c18.3,135.5-24.6,276.9-127.5,420.8c34.8,4.6,69.3,13.3,103.6,26.3
		c125.3,47.6,212.3,71,275.7,77.3C605,471.8,303.2,221.3,190.4,144z"/>
	<polygon class="st1" points="649.2,144 572.5,247.8 521.1,181.6 421.9,309.5 526.9,309.5 620.4,309.5 771.5,309.5 	"/>
	<circle class="st1" cx="570.9" cy="161.3" r="26.4"/>
	<path class="st2" d="M700,800H100C44.8,800,0,755.2,0,700V100C0,44.8,44.8,0,100,0h600c55.2,0,100,44.8,100,100v600
		C800,755.2,755.2,800,700,800z"/>
</g>
</svg>
